<svg width="15" height="15" viewBox="0 0 15 15" fill="none" xmlns="http://www.w3.org/2000/svg">
    <path
        d="M14.25 9V9.75C14.25 11.1825 13.4475 12.4275 12.2625 13.0575L12.75 15H11.25L10.875 13.5H4.125L3.75 15H2.25L2.7375 13.0575C2.13689 12.7389 1.63448 12.2626 1.28429 11.6798C0.934108 11.0971 0.749389 10.4299 0.75 9.75V9H0V7.5H13.5V2.25C13.5 2.05109 13.421 1.86032 13.2803 1.71967C13.1397 1.57902 12.9489 1.5 12.75 1.5C12.375 1.5 12.09 1.755 12 2.0925C12.4725 2.4975 12.75 3.0975 12.75 3.75H8.25C8.25 3.15326 8.48705 2.58097 8.90901 2.15901C9.33097 1.73705 9.90326 1.5 10.5 1.5H10.6275C10.935 0.63 11.7675 0 12.75 0C13.3467 0 13.919 0.237053 14.341 0.65901C14.7629 1.08097 15 1.65326 15 2.25V9H14.25ZM12.75 9H2.25V9.75C2.25 10.3467 2.48705 10.919 2.90901 11.341C3.33097 11.7629 3.90326 12 4.5 12H10.5C11.0967 12 11.669 11.7629 12.091 11.341C12.5129 10.919 12.75 10.3467 12.75 9.75V9Z"
        fill="#00201B" />
</svg>
    