<svg width="16" height="11" viewBox="0 0 16 11" fill="none" xmlns="http://www.w3.org/2000/svg">
    <path
        d="M14.75 4.335V2.25C14.75 1.0125 13.7375 0 12.5 0H9.5C8.9225 0 8.3975 0.225 8 0.585C7.6025 0.225 7.0775 0 6.5 0H3.5C2.2625 0 1.25 1.0125 1.25 2.25V4.335C0.7925 4.7475 0.5 5.34 0.5 6V9.75C0.5 10.1625 0.8375 10.5 1.25 10.5C1.6625 10.5 2 10.1625 2 9.75V9H14V9.75C14 10.1625 14.3375 10.5 14.75 10.5C15.1625 10.5 15.5 10.1625 15.5 9.75V6C15.5 5.34 15.2075 4.7475 14.75 4.335ZM9.5 1.5H12.5C12.9125 1.5 13.25 1.8375 13.25 2.25V3.75H8.75V2.25C8.75 1.8375 9.0875 1.5 9.5 1.5ZM2.75 2.25C2.75 1.8375 3.0875 1.5 3.5 1.5H6.5C6.9125 1.5 7.25 1.8375 7.25 2.25V3.75H2.75V2.25ZM2 7.5V6C2 5.5875 2.3375 5.25 2.75 5.25H13.25C13.6625 5.25 14 5.5875 14 6V7.5H2Z"
        fill="#00201B" />
</svg>
    