<svg width="40" height="40" viewBox="0 0 30 30" fill="none" xmlns="http://www.w3.org/2000/svg">
    <circle cx="15" cy="15" r="15" fill="#2E1A69" />
    <path
        d="M15.2553 23.1009C14.7866 23.1009 14.3852 22.9413 14.0511 22.6222C13.717 22.303 13.5502 21.9199 13.5508 21.4726H16.9599C16.9599 21.9204 16.7928 22.3039 16.4587 22.623C16.1246 22.9421 15.7235 23.1014 15.2553 23.1009ZM11.8462 20.6585V19.0303H18.6644V20.6585H11.8462ZM12.0593 18.2161C11.0792 17.6598 10.3014 16.9135 9.72578 15.9773C9.15021 15.041 8.86271 14.0234 8.86328 12.9243C8.86328 11.2282 9.48487 9.78639 10.7281 8.59885C11.9712 7.41131 13.4803 6.81782 15.2553 6.81836C17.0309 6.81836 18.5403 7.41213 19.7835 8.59967C21.0266 9.78721 21.6479 11.2288 21.6474 12.9243C21.6474 14.0234 21.3599 15.041 20.7849 15.9773C20.2099 16.9135 19.432 17.6598 18.4514 18.2161H12.0593Z"
        fill="white" />
</svg>
    