<svg width="19" height="12" viewBox="0 0 19 12" fill="none" xmlns="http://www.w3.org/2000/svg">
    <path
        d="M0.754883 6.07324C0.584961 6.44824 0.5 6.83789 0.5 7.24219V7.875C0.5 8.32031 0.620117 8.72754 0.860352 9.09668C1.10059 9.46582 1.42285 9.74121 1.82715 9.92285C2.00879 10.3271 2.28418 10.6494 2.65332 10.8896C3.02246 11.1299 3.42969 11.25 3.875 11.25C4.2793 11.25 4.6543 11.1504 5 10.9512C5.3457 10.752 5.62109 10.4766 5.82617 10.125H12.0488C12.2539 10.4766 12.5293 10.752 12.875 10.9512C13.2207 11.1504 13.5957 11.25 14 11.25C14.4043 11.25 14.7793 11.1504 15.125 10.9512C15.4707 10.752 15.7461 10.4766 15.9512 10.125H17.375C17.5332 10.125 17.6797 10.0957 17.8145 10.0371C17.9492 9.97852 18.0664 9.89941 18.166 9.7998C18.2656 9.7002 18.3477 9.58008 18.4121 9.43945C18.4766 9.29883 18.5059 9.15234 18.5 9V6.75C18.5 6.28125 18.4121 5.8418 18.2363 5.43164C18.0605 5.02148 17.8203 4.66406 17.5156 4.35938C17.2109 4.05469 16.8535 3.81445 16.4434 3.63867C16.0332 3.46289 15.5938 3.375 15.125 3.375H14.7998L11.917 0.492188C11.7588 0.333984 11.5771 0.213867 11.3721 0.131836C11.167 0.0498047 10.9502 0.00585938 10.7217 0H2.75V1.125H3.00488L0.754883 6.07324ZM7.25 1.125V3.375H3.21582L4.08594 1.4502C4.13281 1.35059 4.20312 1.27148 4.29688 1.21289C4.39062 1.1543 4.49316 1.125 4.60449 1.125H7.25ZM10.7217 1.125C10.874 1.125 11.0059 1.18066 11.1172 1.29199L13.2002 3.375H8.375V1.125H10.7217ZM14 10.125C13.8418 10.125 13.6953 10.0957 13.5605 10.0371C13.4258 9.97852 13.3086 9.89941 13.209 9.7998C13.1094 9.7002 13.0273 9.58008 12.9629 9.43945C12.8984 9.29883 12.8691 9.15234 12.875 9C12.875 8.8418 12.9043 8.69531 12.9629 8.56055C13.0215 8.42578 13.1006 8.30859 13.2002 8.20898C13.2998 8.10938 13.4199 8.02734 13.5605 7.96289C13.7012 7.89844 13.8477 7.86914 14 7.875C14.1582 7.875 14.3047 7.9043 14.4395 7.96289C14.5742 8.02148 14.6914 8.10059 14.791 8.2002C14.8906 8.2998 14.9727 8.41992 15.0371 8.56055C15.1016 8.70117 15.1309 8.84766 15.125 9C15.125 9.1582 15.0957 9.30469 15.0371 9.43945C14.9785 9.57422 14.8994 9.69141 14.7998 9.79102C14.7002 9.89062 14.5801 9.97266 14.4395 10.0371C14.2988 10.1016 14.1523 10.1309 14 10.125ZM14 6.75C13.6895 6.75 13.3994 6.80859 13.1299 6.92578C12.8604 7.04297 12.6201 7.2041 12.4092 7.40918C12.1982 7.61426 12.0371 7.85156 11.9258 8.12109C11.8145 8.39062 11.7559 8.68359 11.75 9H8.375V4.5H15.125C15.4355 4.5 15.7256 4.55859 15.9951 4.67578C16.2646 4.79297 16.5049 4.9541 16.7158 5.15918C16.9268 5.36426 17.0879 5.60156 17.1992 5.87109C17.3105 6.14062 17.3691 6.43359 17.375 6.75V9H16.25C16.25 8.68945 16.1914 8.39941 16.0742 8.12988C15.957 7.86035 15.7959 7.62012 15.5908 7.40918C15.3857 7.19824 15.1484 7.03711 14.8789 6.92578C14.6094 6.81445 14.3164 6.75586 14 6.75ZM3.875 10.125C3.7168 10.125 3.57031 10.0957 3.43555 10.0371C3.30078 9.97852 3.18359 9.89941 3.08398 9.7998C2.98438 9.7002 2.90234 9.58008 2.83789 9.43945C2.77344 9.29883 2.74414 9.15234 2.75 9C2.75 8.8418 2.7793 8.69531 2.83789 8.56055C2.89648 8.42578 2.97559 8.30859 3.0752 8.20898C3.1748 8.10938 3.29492 8.02734 3.43555 7.96289C3.57617 7.89844 3.72266 7.86914 3.875 7.875C4.0332 7.875 4.17969 7.9043 4.31445 7.96289C4.44922 8.02148 4.56641 8.10059 4.66602 8.2002C4.76562 8.2998 4.84766 8.41992 4.91211 8.56055C4.97656 8.70117 5.00586 8.84766 5 9C5 9.1582 4.9707 9.30469 4.91211 9.43945C4.85352 9.57422 4.77441 9.69141 4.6748 9.79102C4.5752 9.89062 4.45508 9.97266 4.31445 10.0371C4.17383 10.1016 4.02734 10.1309 3.875 10.125ZM1.625 7.24219C1.625 7.00195 1.6748 6.76758 1.77441 6.53906L2.70605 4.5H7.25V9H6.125C6.125 8.68945 6.06641 8.39941 5.94922 8.12988C5.83203 7.86035 5.6709 7.62012 5.46582 7.40918C5.26074 7.19824 5.02344 7.03711 4.75391 6.92578C4.48438 6.81445 4.19141 6.75586 3.875 6.75C3.62891 6.75 3.3916 6.78809 3.16309 6.86426C2.93457 6.94043 2.72656 7.04883 2.53906 7.18945C2.35156 7.33008 2.1875 7.49707 2.04688 7.69043C1.90625 7.88379 1.79785 8.10059 1.72168 8.34082C1.65723 8.18262 1.625 8.02734 1.625 7.875V7.24219Z"
        fill="#00201B" />
</svg>
    