<svg width="16" height="16" viewBox="0 0 16 16" fill="none" xmlns="http://www.w3.org/2000/svg">
<path d="M12.322 11.178C11.4108 11.3968 10.4595 11.3862 9.55341 11.1472C8.64729 10.9081 7.8146 10.4481 7.12991 9.80825C6.44522 9.16841 5.9299 8.36875 5.63009 7.48088C5.33029 6.593 5.25536 5.64464 5.41201 4.7207C5.38819 4.74371 5.36304 4.76531 5.33668 4.78537C5.15001 4.92737 4.91668 4.98004 4.45001 5.08537L4.02668 5.18137C2.38668 5.5527 1.56668 5.73804 1.37135 6.36537C1.17668 6.99204 1.73535 7.64604 2.85335 8.95337L3.14268 9.29137C3.46001 9.6627 3.61935 9.8487 3.69068 10.078C3.76201 10.308 3.73801 10.556 3.69001 11.0514L3.64601 11.5027C3.47735 13.2474 3.39268 14.1194 3.90335 14.5067C4.41401 14.8947 5.18201 14.5414 6.71668 13.834L7.11468 13.6514C7.55068 13.45 7.76868 13.35 8.00001 13.35C8.23135 13.35 8.44935 13.45 8.88601 13.6514L9.28268 13.834C10.818 14.5407 11.586 14.894 12.096 14.5074C12.6073 14.1194 12.5227 13.2474 12.354 11.5027L12.322 11.178Z" fill="#FEBF4B"/>
<path opacity="0.5" d="M6.10204 3.60537L5.88338 3.99737C5.64338 4.42804 5.52338 4.64337 5.33671 4.78537C5.36338 4.76537 5.38804 4.74404 5.41204 4.72071C5.25535 5.64471 5.33027 6.59316 5.63011 7.4811C5.92995 8.36904 6.44533 9.16875 7.13011 9.8086C7.81489 10.4485 8.64768 10.9085 9.55389 11.1475C10.4601 11.3865 11.4114 11.397 12.3227 11.178L12.3094 11.0514C12.262 10.556 12.238 10.308 12.3094 10.078C12.3807 9.84871 12.5394 9.66271 12.8574 9.29137L13.1467 8.95337C14.2647 7.64671 14.8234 6.99271 14.628 6.36537C14.4334 5.73804 13.6134 5.55204 11.9734 5.18137L11.5494 5.08537C11.0834 4.98004 10.85 4.92737 10.6627 4.78537C10.476 4.64337 10.356 4.42804 10.116 3.99737L9.89804 3.60537C9.05338 2.09071 8.63138 1.33337 8.00004 1.33337C7.36871 1.33337 6.94671 2.09071 6.10204 3.60537Z" fill="#E71313"/>
</svg>
