<svg width="43" height="43" viewBox="0 0 43 43" fill="none" xmlns="http://www.w3.org/2000/svg">
    <path
        d="M30.5659 23.2917C27.2334 23.2917 24.4384 25.6746 23.7217 28.8458C22.0196 28.1112 20.4609 28.3083 19.2784 28.8279C18.5438 25.6387 15.7488 23.2917 12.4342 23.2917C8.54629 23.2917 5.37504 26.4987 5.37504 30.4583C5.37504 34.4179 8.54629 37.625 12.4342 37.625C16.125 37.625 19.135 34.7225 19.4217 31.0317C20.0309 30.6017 21.6255 29.7954 23.5784 31.0675C23.9009 34.7404 26.875 37.625 30.5659 37.625C34.4538 37.625 37.625 34.4179 37.625 30.4583C37.625 26.4987 34.4538 23.2917 30.5659 23.2917ZM12.4342 35.5825C9.63921 35.5825 7.39962 33.2892 7.39962 30.4583C7.39962 27.6275 9.65712 25.3342 12.4342 25.3342C15.2292 25.3342 17.4688 27.6275 17.4688 30.4583C17.4688 33.2892 15.2292 35.5825 12.4342 35.5825ZM30.5659 35.5825C27.7709 35.5825 25.5313 33.2892 25.5313 30.4583C25.5313 27.6275 27.7709 25.3342 30.5659 25.3342C33.3609 25.3342 35.6184 27.6275 35.6184 30.4583C35.6184 33.2892 33.343 35.5825 30.5659 35.5825ZM39.4167 18.8125H3.58337V21.5H39.4167V18.8125ZM27.8246 4.71208C27.4305 3.83416 26.4271 3.36833 25.4775 3.67291L21.5 4.99874L17.5046 3.67291L17.415 3.65499C16.4655 3.38624 15.4621 3.88791 15.1038 4.80166L10.75 16.125H32.25L27.8784 4.80166L27.8246 4.71208Z"
        fill="black" />
</svg>
    