<svg width="22" height="21" viewBox="0 0 22 21" fill="none" xmlns="http://www.w3.org/2000/svg">
<path d="M11.2649 3.70121C11.1938 3.63114 11.1095 3.57596 11.0168 3.53891C10.9241 3.50187 10.8249 3.4837 10.7251 3.48547C10.6253 3.48724 10.5268 3.50892 10.4355 3.54923C10.3442 3.58955 10.2619 3.64768 10.1933 3.72024C10.1247 3.79279 10.0714 3.8783 10.0363 3.97175C10.0012 4.06521 9.98511 4.16472 9.98898 4.26447C9.99286 4.36422 10.0166 4.46219 10.0588 4.55264C10.1011 4.64309 10.1609 4.7242 10.2349 4.79121L15.4739 9.74621L2.74991 9.74621C2.551 9.74621 2.36023 9.82523 2.21958 9.96588C2.07893 10.1065 1.99991 10.2973 1.99991 10.4962C1.99991 10.6951 2.07893 10.8859 2.21958 11.0265C2.36023 11.1672 2.551 11.2462 2.74991 11.2462L15.4759 11.2462L10.2349 16.2032C10.1609 16.2702 10.1011 16.3513 10.0588 16.4418C10.0166 16.5322 9.99286 16.6302 9.98898 16.73C9.98511 16.8297 10.0012 16.9292 10.0363 17.0227C10.0713 17.1161 10.1247 17.2016 10.1933 17.2742C10.2619 17.3467 10.3442 17.4049 10.4355 17.4452C10.5268 17.4855 10.6253 17.5072 10.7251 17.509C10.8249 17.5107 10.9241 17.4926 11.0168 17.4555C11.1095 17.4185 11.1938 17.3633 11.2649 17.2932L17.6829 11.2232C17.8426 11.0728 17.948 10.8738 17.9829 10.6572C18.0064 10.5491 18.0057 10.4371 17.9809 10.3292C17.9449 10.1157 17.8403 9.91984 17.6829 9.77121L11.2649 3.70121Z" fill="#222AFC"/>
<path d="M21 3.5V17.5" stroke="#222AFC" stroke-linejoin="round"/>
</svg>
