<svg width="177" height="39" viewBox="0 0 177 39" fill="none" xmlns="http://www.w3.org/2000/svg">
    <path
        d="M23.8739 25.6574C22.1084 26.0814 20.2653 26.0608 18.5097 25.5977C16.7541 25.1345 15.1407 24.2432 13.8142 23.0035C12.4876 21.7638 11.4891 20.2144 10.9082 18.4942C10.3274 16.7739 10.1822 14.9365 10.4857 13.1464C10.4396 13.1909 10.3908 13.2328 10.3398 13.2717C9.9781 13.5468 9.52602 13.6488 8.62185 13.8529L7.80164 14.0389C4.62414 14.7584 3.03539 15.1174 2.65694 16.3329C2.27977 17.5471 3.36219 18.8142 5.52831 21.3472L6.0889 22.002C6.70373 22.7215 7.01244 23.0819 7.15064 23.5262C7.28885 23.9718 7.24235 24.4523 7.14935 25.412L7.0641 26.2865C6.73731 29.6668 6.57327 31.3563 7.56269 32.1067C8.5521 32.8585 10.0401 32.1739 13.0135 30.8034L13.7846 30.4495C14.6294 30.0594 15.0518 29.8657 15.5 29.8657C15.9482 29.8657 16.3706 30.0594 17.2166 30.4495L17.9851 30.8034C20.9599 32.1726 22.4479 32.8572 23.436 32.108C24.4267 31.3563 24.2626 29.6668 23.9359 26.2865L23.8739 25.6574Z"
        fill="#FEBF4B" />
    <path opacity="0.5"
        d="M11.8226 10.9854L11.3989 11.7449C10.9339 12.5793 10.7014 12.9965 10.3398 13.2716C10.3914 13.2329 10.4392 13.1915 10.4857 13.1463C10.1821 14.9366 10.3273 16.7742 10.9082 18.4946C11.4892 20.215 12.4877 21.7644 13.8145 23.0041C15.1412 24.2439 16.7548 25.1352 18.5106 25.5982C20.2663 26.0613 22.1096 26.0816 23.8751 25.6574L23.8493 25.412C23.7576 24.4523 23.7111 23.9718 23.8493 23.5262C23.9875 23.0818 24.2949 22.7215 24.9111 22.002L25.4716 21.3471C27.6378 18.8155 28.7202 17.5483 28.3417 16.3329C27.9646 15.1174 26.3758 14.757 23.1983 14.0389L22.3768 13.8529C21.4739 13.6488 21.0219 13.5467 20.6589 13.2716C20.2972 12.9965 20.0647 12.5793 19.5997 11.7449L19.1774 10.9854C17.5408 8.05071 16.7232 6.58337 15.5 6.58337C14.2768 6.58337 13.4591 8.05071 11.8226 10.9854Z"
        fill="#E71313" />
    <path
        d="M48.952 31.32C47.2027 31.32 45.528 31.0747 43.928 30.584C42.328 30.072 41.0587 29.4213 40.12 28.632L41.56 25.4C42.456 26.104 43.5653 26.6907 44.888 27.16C46.2107 27.6293 47.5653 27.864 48.952 27.864C50.1253 27.864 51.0747 27.736 51.8 27.48C52.5253 27.224 53.0587 26.8827 53.4 26.456C53.7413 26.008 53.912 25.5067 53.912 24.952C53.912 24.2693 53.6667 23.7253 53.176 23.32C52.6853 22.8933 52.0453 22.5627 51.256 22.328C50.488 22.072 49.624 21.8373 48.664 21.624C47.7253 21.4107 46.776 21.1653 45.816 20.888C44.8773 20.5893 44.0133 20.216 43.224 19.768C42.456 19.2987 41.8267 18.68 41.336 17.912C40.8453 17.144 40.6 16.1627 40.6 14.968C40.6 13.752 40.92 12.6427 41.56 11.64C42.2213 10.616 43.2133 9.80533 44.536 9.208C45.88 8.58933 47.576 8.28 49.624 8.28C50.968 8.28 52.3013 8.45067 53.624 8.792C54.9467 9.13333 56.0987 9.624 57.08 10.264L55.768 13.496C54.7653 12.8987 53.7307 12.4613 52.664 12.184C51.5973 11.8853 50.5733 11.736 49.592 11.736C48.44 11.736 47.5013 11.8747 46.776 12.152C46.072 12.4293 45.5493 12.792 45.208 13.24C44.888 13.688 44.728 14.2 44.728 14.776C44.728 15.4587 44.9627 16.0133 45.432 16.44C45.9227 16.8453 46.552 17.1653 47.32 17.4C48.1093 17.6347 48.984 17.8693 49.944 18.104C50.904 18.3173 51.8533 18.5627 52.792 18.84C53.752 19.1173 54.616 19.48 55.384 19.928C56.1733 20.376 56.8027 20.984 57.272 21.752C57.7627 22.52 58.008 23.4907 58.008 24.664C58.008 25.8587 57.6773 26.968 57.016 27.992C56.376 28.9947 55.384 29.8053 54.04 30.424C52.696 31.0213 51 31.32 48.952 31.32ZM66.517 31.168C65.429 31.168 64.469 30.968 63.637 30.568C62.805 30.152 62.157 29.528 61.693 28.696C61.229 27.848 60.997 26.784 60.997 25.504V18.184H63.997V25.096C63.997 26.248 64.253 27.112 64.765 27.688C65.293 28.248 66.037 28.528 66.997 28.528C67.701 28.528 68.309 28.384 68.821 28.096C69.349 27.808 69.757 27.376 70.045 26.8C70.349 26.224 70.501 25.512 70.501 24.664V18.184H73.501V31H70.645V27.544L71.149 28.6C70.717 29.432 70.085 30.072 69.253 30.52C68.421 30.952 67.509 31.168 66.517 31.168ZM84.5329 31.168C83.4929 31.168 82.5409 30.928 81.6769 30.448C80.8289 29.968 80.1489 29.248 79.6369 28.288C79.1409 27.312 78.8929 26.08 78.8929 24.592C78.8929 23.088 79.1329 21.856 79.6129 20.896C80.1089 19.936 80.7809 19.224 81.6289 18.76C82.4769 18.28 83.4449 18.04 84.5329 18.04C85.7969 18.04 86.9089 18.312 87.8689 18.856C88.8449 19.4 89.6129 20.16 90.1729 21.136C90.7489 22.112 91.0369 23.264 91.0369 24.592C91.0369 25.92 90.7489 27.08 90.1729 28.072C89.6129 29.048 88.8449 29.808 87.8689 30.352C86.9089 30.896 85.7969 31.168 84.5329 31.168ZM77.4289 35.656V18.184H80.2849V21.208L80.1889 24.616L80.4289 28.024V35.656H77.4289ZM84.1969 28.6C84.9169 28.6 85.5569 28.44 86.1169 28.12C86.6929 27.8 87.1489 27.336 87.4849 26.728C87.8209 26.12 87.9889 25.408 87.9889 24.592C87.9889 23.76 87.8209 23.048 87.4849 22.456C87.1489 21.848 86.6929 21.384 86.1169 21.064C85.5569 20.744 84.9169 20.584 84.1969 20.584C83.4769 20.584 82.8289 20.744 82.2529 21.064C81.6769 21.384 81.2209 21.848 80.8849 22.456C80.5489 23.048 80.3809 23.76 80.3809 24.592C80.3809 25.408 80.5489 26.12 80.8849 26.728C81.2209 27.336 81.6769 27.8 82.2529 28.12C82.8289 28.44 83.4769 28.6 84.1969 28.6ZM99.9061 31.168C98.4821 31.168 97.2341 30.888 96.1621 30.328C95.1061 29.752 94.2821 28.968 93.6901 27.976C93.1141 26.984 92.8261 25.856 92.8261 24.592C92.8261 23.312 93.1061 22.184 93.6661 21.208C94.2421 20.216 95.0261 19.44 96.0181 18.88C97.0261 18.32 98.1701 18.04 99.4501 18.04C100.698 18.04 101.81 18.312 102.786 18.856C103.762 19.4 104.53 20.168 105.09 21.16C105.65 22.152 105.93 23.32 105.93 24.664C105.93 24.792 105.922 24.936 105.906 25.096C105.906 25.256 105.898 25.408 105.882 25.552H95.2021V23.56H104.298L103.122 24.184C103.138 23.448 102.986 22.8 102.666 22.24C102.346 21.68 101.906 21.24 101.346 20.92C100.802 20.6 100.17 20.44 99.4501 20.44C98.7141 20.44 98.0661 20.6 97.5061 20.92C96.9621 21.24 96.5301 21.688 96.2101 22.264C95.9061 22.824 95.7541 23.488 95.7541 24.256V24.736C95.7541 25.504 95.9301 26.184 96.2821 26.776C96.6341 27.368 97.1301 27.824 97.7701 28.144C98.4101 28.464 99.1461 28.624 99.9781 28.624C100.698 28.624 101.346 28.512 101.922 28.288C102.498 28.064 103.01 27.712 103.458 27.232L105.066 29.08C104.49 29.752 103.762 30.272 102.882 30.64C102.018 30.992 101.026 31.168 99.9061 31.168ZM108.812 31V18.184H111.668V21.712L111.332 20.68C111.716 19.816 112.316 19.16 113.132 18.712C113.964 18.264 114.996 18.04 116.228 18.04V20.896C116.1 20.864 115.98 20.848 115.868 20.848C115.756 20.832 115.644 20.824 115.532 20.824C114.396 20.824 113.492 21.16 112.82 21.832C112.148 22.488 111.812 23.472 111.812 24.784V31H108.812ZM119.298 31V17.464C119.298 16.12 119.69 15.048 120.474 14.248C121.274 13.432 122.41 13.024 123.882 13.024C124.41 13.024 124.906 13.08 125.37 13.192C125.85 13.304 126.25 13.48 126.57 13.72L125.754 15.976C125.53 15.8 125.274 15.672 124.986 15.592C124.698 15.496 124.402 15.448 124.098 15.448C123.474 15.448 123.002 15.624 122.682 15.976C122.362 16.312 122.202 16.824 122.202 17.512V18.952L122.298 20.296V31H119.298ZM117.186 20.68V18.28H125.73V20.68H117.186ZM133.322 31.168C132.01 31.168 130.842 30.888 129.818 30.328C128.794 29.752 127.986 28.968 127.394 27.976C126.802 26.984 126.506 25.856 126.506 24.592C126.506 23.312 126.802 22.184 127.394 21.208C127.986 20.216 128.794 19.44 129.818 18.88C130.842 18.32 132.01 18.04 133.322 18.04C134.65 18.04 135.826 18.32 136.85 18.88C137.89 19.44 138.698 20.208 139.274 21.184C139.866 22.16 140.162 23.296 140.162 24.592C140.162 25.856 139.866 26.984 139.274 27.976C138.698 28.968 137.89 29.752 136.85 30.328C135.826 30.888 134.65 31.168 133.322 31.168ZM133.322 28.6C134.058 28.6 134.714 28.44 135.29 28.12C135.866 27.8 136.314 27.336 136.634 26.728C136.97 26.12 137.138 25.408 137.138 24.592C137.138 23.76 136.97 23.048 136.634 22.456C136.314 21.848 135.866 21.384 135.29 21.064C134.714 20.744 134.066 20.584 133.346 20.584C132.61 20.584 131.954 20.744 131.378 21.064C130.818 21.384 130.37 21.848 130.034 22.456C129.698 23.048 129.53 23.76 129.53 24.592C129.53 25.408 129.698 26.12 130.034 26.728C130.37 27.336 130.818 27.8 131.378 28.12C131.954 28.44 132.602 28.6 133.322 28.6ZM143.031 31V18.184H145.887V21.712L145.551 20.68C145.935 19.816 146.535 19.16 147.351 18.712C148.183 18.264 149.215 18.04 150.447 18.04V20.896C150.319 20.864 150.199 20.848 150.087 20.848C149.975 20.832 149.863 20.824 149.751 20.824C148.615 20.824 147.711 21.16 147.039 21.832C146.367 22.488 146.031 23.472 146.031 24.784V31H143.031ZM169.167 18.04C170.191 18.04 171.095 18.24 171.879 18.64C172.679 19.04 173.303 19.656 173.751 20.488C174.199 21.304 174.423 22.36 174.423 23.656V31H171.423V24.04C171.423 22.904 171.175 22.056 170.679 21.496C170.183 20.936 169.471 20.656 168.543 20.656C167.887 20.656 167.303 20.8 166.791 21.088C166.295 21.376 165.903 21.8 165.615 22.36C165.343 22.92 165.207 23.632 165.207 24.496V31H162.207V24.04C162.207 22.904 161.959 22.056 161.463 21.496C160.967 20.936 160.255 20.656 159.327 20.656C158.671 20.656 158.087 20.8 157.575 21.088C157.079 21.376 156.687 21.8 156.399 22.36C156.127 22.92 155.991 23.632 155.991 24.496V31H152.991V18.184H155.847V21.592L155.343 20.584C155.775 19.752 156.399 19.12 157.215 18.688C158.047 18.256 158.991 18.04 160.047 18.04C161.247 18.04 162.287 18.336 163.167 18.928C164.063 19.52 164.655 20.416 164.943 21.616L163.767 21.208C164.183 20.248 164.871 19.48 165.831 18.904C166.791 18.328 167.903 18.04 169.167 18.04Z"
        fill="#292929" />
</svg>
    