<svg width="148" height="34" viewBox="0 0 148 34" fill="none" xmlns="http://www.w3.org/2000/svg">
    <path
        d="M20.483 21.7671C19.1162 22.0953 17.6893 22.0794 16.3301 21.7208C14.9709 21.3622 13.7219 20.6721 12.6948 19.7124C11.6678 18.7526 10.8948 17.5531 10.4451 16.2213C9.9954 14.8895 9.883 13.467 10.118 12.0811C10.0823 12.1156 10.0445 12.148 10.005 12.1781C9.72499 12.3911 9.37499 12.4701 8.67499 12.6281L8.03999 12.7721C5.57999 13.3291 4.34999 13.6071 4.05699 14.5481C3.76499 15.4881 4.60299 16.4691 6.27999 18.4301L6.71399 18.9371C7.18999 19.4941 7.42899 19.7731 7.53599 20.1171C7.64299 20.4621 7.60699 20.8341 7.53499 21.5771L7.46899 22.2541C7.21599 24.8711 7.08899 26.1791 7.85499 26.7601C8.62099 27.3421 9.77299 26.8121 12.075 25.7511L12.672 25.4771C13.326 25.1751 13.653 25.0251 14 25.0251C14.347 25.0251 14.674 25.1751 15.329 25.4771L15.924 25.7511C18.227 26.8111 19.379 27.3411 20.144 26.7611C20.911 26.1791 20.784 24.8711 20.531 22.2541L20.483 21.7671Z"
        fill="#FEBF4B" />
    <path opacity="0.5"
        d="M11.1529 10.408L10.8249 10.996C10.4649 11.642 10.2849 11.965 10.0049 12.178C10.0449 12.148 10.0819 12.116 10.1179 12.081C9.8829 13.467 9.99528 14.8897 10.445 16.2216C10.8948 17.5535 11.6679 18.7531 12.695 19.7128C13.7222 20.6726 14.9714 21.3627 16.3307 21.7212C17.69 22.0797 19.117 22.0954 20.4839 21.767L20.4639 21.577C20.3929 20.834 20.3569 20.462 20.4639 20.117C20.5709 19.773 20.8089 19.494 21.2859 18.937L21.7199 18.43C23.3969 16.47 24.2349 15.489 23.9419 14.548C23.6499 13.607 22.4199 13.328 19.9599 12.772L19.3239 12.628C18.6249 12.47 18.2749 12.391 17.9939 12.178C17.7139 11.965 17.5339 11.642 17.1739 10.996L16.8469 10.408C15.5799 8.136 14.9469 7 13.9999 7C13.0529 7 12.4199 8.136 11.1529 10.408Z"
        fill="#E71313" />
    <path
        d="M38.708 27.28C37.1773 27.28 35.712 27.0653 34.312 26.636C32.912 26.188 31.8013 25.6187 30.98 24.928L32.24 22.1C33.024 22.716 33.9947 23.2293 35.152 23.64C36.3093 24.0507 37.4947 24.256 38.708 24.256C39.7347 24.256 40.5653 24.144 41.2 23.92C41.8347 23.696 42.3013 23.3973 42.6 23.024C42.8987 22.632 43.048 22.1933 43.048 21.708C43.048 21.1107 42.8333 20.6347 42.404 20.28C41.9747 19.9067 41.4147 19.6173 40.724 19.412C40.052 19.188 39.296 18.9827 38.456 18.796C37.6347 18.6093 36.804 18.3947 35.964 18.152C35.1427 17.8907 34.3867 17.564 33.696 17.172C33.024 16.7613 32.4733 16.22 32.044 15.548C31.6147 14.876 31.4 14.0173 31.4 12.972C31.4 11.908 31.68 10.9373 32.24 10.06C32.8187 9.164 33.6867 8.45467 34.844 7.932C36.02 7.39067 37.504 7.12 39.296 7.12C40.472 7.12 41.6387 7.26933 42.796 7.568C43.9533 7.86667 44.9613 8.296 45.82 8.856L44.672 11.684C43.7947 11.1613 42.8893 10.7787 41.956 10.536C41.0227 10.2747 40.1267 10.144 39.268 10.144C38.26 10.144 37.4387 10.2653 36.804 10.508C36.188 10.7507 35.7307 11.068 35.432 11.46C35.152 11.852 35.012 12.3 35.012 12.804C35.012 13.4013 35.2173 13.8867 35.628 14.26C36.0573 14.6147 36.608 14.8947 37.28 15.1C37.9707 15.3053 38.736 15.5107 39.576 15.716C40.416 15.9027 41.2467 16.1173 42.068 16.36C42.908 16.6027 43.664 16.92 44.336 17.312C45.0267 17.704 45.5773 18.236 45.988 18.908C46.4173 19.58 46.632 20.4293 46.632 21.456C46.632 22.5013 46.3427 23.472 45.764 24.368C45.204 25.2453 44.336 25.9547 43.16 26.496C41.984 27.0187 40.5 27.28 38.708 27.28ZM53.7694 27.14C52.8627 27.14 52.0627 26.9733 51.3694 26.64C50.676 26.2933 50.136 25.7733 49.7494 25.08C49.3627 24.3733 49.1694 23.4867 49.1694 22.42V16.32H51.6694V22.08C51.6694 23.04 51.8827 23.76 52.3094 24.24C52.7494 24.7067 53.3694 24.94 54.1694 24.94C54.756 24.94 55.2627 24.82 55.6894 24.58C56.1294 24.34 56.4694 23.98 56.7094 23.5C56.9627 23.02 57.0894 22.4267 57.0894 21.72V16.32H59.5894V27H57.2094V24.12L57.6294 25C57.2694 25.6933 56.7427 26.2267 56.0494 26.6C55.356 26.96 54.596 27.14 53.7694 27.14ZM68.7827 27.14C67.916 27.14 67.1227 26.94 66.4027 26.54C65.696 26.14 65.1293 25.54 64.7027 24.74C64.2893 23.9267 64.0827 22.9 64.0827 21.66C64.0827 20.4067 64.2827 19.38 64.6827 18.58C65.096 17.78 65.656 17.1867 66.3627 16.8C67.0693 16.4 67.876 16.2 68.7827 16.2C69.836 16.2 70.7627 16.4267 71.5627 16.88C72.376 17.3333 73.016 17.9667 73.4827 18.78C73.9627 19.5933 74.2027 20.5533 74.2027 21.66C74.2027 22.7667 73.9627 23.7333 73.4827 24.56C73.016 25.3733 72.376 26.0067 71.5627 26.46C70.7627 26.9133 69.836 27.14 68.7827 27.14ZM62.8627 30.88V16.32H65.2427V18.84L65.1627 21.68L65.3627 24.52V30.88H62.8627ZM68.5027 25C69.1027 25 69.636 24.8667 70.1027 24.6C70.5827 24.3333 70.9627 23.9467 71.2427 23.44C71.5227 22.9333 71.6627 22.34 71.6627 21.66C71.6627 20.9667 71.5227 20.3733 71.2427 19.88C70.9627 19.3733 70.5827 18.9867 70.1027 18.72C69.636 18.4533 69.1027 18.32 68.5027 18.32C67.9027 18.32 67.3627 18.4533 66.8827 18.72C66.4027 18.9867 66.0227 19.3733 65.7427 19.88C65.4627 20.3733 65.3227 20.9667 65.3227 21.66C65.3227 22.34 65.4627 22.9333 65.7427 23.44C66.0227 23.9467 66.4027 24.3333 66.8827 24.6C67.3627 24.8667 67.9027 25 68.5027 25ZM81.5936 27.14C80.4069 27.14 79.3669 26.9067 78.4736 26.44C77.5936 25.96 76.9069 25.3067 76.4136 24.48C75.9336 23.6533 75.6936 22.7133 75.6936 21.66C75.6936 20.5933 75.9269 19.6533 76.3936 18.84C76.8736 18.0133 77.5269 17.3667 78.3536 16.9C79.1936 16.4333 80.1469 16.2 81.2136 16.2C82.2536 16.2 83.1803 16.4267 83.9936 16.88C84.8069 17.3333 85.4469 17.9733 85.9136 18.8C86.3803 19.6267 86.6136 20.6 86.6136 21.72C86.6136 21.8267 86.6069 21.9467 86.5936 22.08C86.5936 22.2133 86.5869 22.34 86.5736 22.46H77.6736V20.8H85.2536L84.2736 21.32C84.2869 20.7067 84.1603 20.1667 83.8936 19.7C83.6269 19.2333 83.2603 18.8667 82.7936 18.6C82.3403 18.3333 81.8136 18.2 81.2136 18.2C80.6003 18.2 80.0603 18.3333 79.5936 18.6C79.1403 18.8667 78.7803 19.24 78.5136 19.72C78.2603 20.1867 78.1336 20.74 78.1336 21.38V21.78C78.1336 22.42 78.2803 22.9867 78.5736 23.48C78.8669 23.9733 79.2803 24.3533 79.8136 24.62C80.3469 24.8867 80.9603 25.02 81.6536 25.02C82.2536 25.02 82.7936 24.9267 83.2736 24.74C83.7536 24.5533 84.1803 24.26 84.5536 23.86L85.8936 25.4C85.4136 25.96 84.8069 26.3933 84.0736 26.7C83.3536 26.9933 82.5269 27.14 81.5936 27.14ZM89.015 27V16.32H91.395V19.26L91.115 18.4C91.435 17.68 91.935 17.1333 92.615 16.76C93.3083 16.3867 94.1683 16.2 95.195 16.2V18.58C95.0883 18.5533 94.9883 18.54 94.895 18.54C94.8017 18.5267 94.7083 18.52 94.615 18.52C93.6683 18.52 92.915 18.8 92.355 19.36C91.795 19.9067 91.515 20.7267 91.515 21.82V27H89.015ZM97.7534 27V15.72C97.7534 14.6 98.0801 13.7067 98.7334 13.04C99.4001 12.36 100.347 12.02 101.573 12.02C102.013 12.02 102.427 12.0667 102.813 12.16C103.213 12.2533 103.547 12.4 103.813 12.6L103.133 14.48C102.947 14.3333 102.733 14.2267 102.493 14.16C102.253 14.08 102.007 14.04 101.753 14.04C101.233 14.04 100.84 14.1867 100.573 14.48C100.307 14.76 100.173 15.1867 100.173 15.76V16.96L100.253 18.08V27H97.7534ZM95.9934 18.4V16.4H103.113V18.4H95.9934ZM109.44 27.14C108.347 27.14 107.373 26.9067 106.52 26.44C105.667 25.96 104.993 25.3067 104.5 24.48C104.007 23.6533 103.76 22.7133 103.76 21.66C103.76 20.5933 104.007 19.6533 104.5 18.84C104.993 18.0133 105.667 17.3667 106.52 16.9C107.373 16.4333 108.347 16.2 109.44 16.2C110.547 16.2 111.527 16.4333 112.38 16.9C113.247 17.3667 113.92 18.0067 114.4 18.82C114.893 19.6333 115.14 20.58 115.14 21.66C115.14 22.7133 114.893 23.6533 114.4 24.48C113.92 25.3067 113.247 25.96 112.38 26.44C111.527 26.9067 110.547 27.14 109.44 27.14ZM109.44 25C110.053 25 110.6 24.8667 111.08 24.6C111.56 24.3333 111.933 23.9467 112.2 23.44C112.48 22.9333 112.62 22.34 112.62 21.66C112.62 20.9667 112.48 20.3733 112.2 19.88C111.933 19.3733 111.56 18.9867 111.08 18.72C110.6 18.4533 110.06 18.32 109.46 18.32C108.847 18.32 108.3 18.4533 107.82 18.72C107.353 18.9867 106.98 19.3733 106.7 19.88C106.42 20.3733 106.28 20.9667 106.28 21.66C106.28 22.34 106.42 22.9333 106.7 23.44C106.98 23.9467 107.353 24.3333 107.82 24.6C108.3 24.8667 108.84 25 109.44 25ZM117.531 27V16.32H119.911V19.26L119.631 18.4C119.951 17.68 120.451 17.1333 121.131 16.76C121.824 16.3867 122.684 16.2 123.711 16.2V18.58C123.604 18.5533 123.504 18.54 123.411 18.54C123.317 18.5267 123.224 18.52 123.131 18.52C122.184 18.52 121.431 18.8 120.871 19.36C120.311 19.9067 120.031 20.7267 120.031 21.82V27H117.531ZM139.311 16.2C140.165 16.2 140.918 16.3667 141.571 16.7C142.238 17.0333 142.758 17.5467 143.131 18.24C143.505 18.92 143.691 19.8 143.691 20.88V27H141.191V21.2C141.191 20.2533 140.985 19.5467 140.571 19.08C140.158 18.6133 139.565 18.38 138.791 18.38C138.245 18.38 137.758 18.5 137.331 18.74C136.918 18.98 136.591 19.3333 136.351 19.8C136.125 20.2667 136.011 20.86 136.011 21.58V27H133.511V21.2C133.511 20.2533 133.305 19.5467 132.891 19.08C132.478 18.6133 131.885 18.38 131.111 18.38C130.565 18.38 130.078 18.5 129.651 18.74C129.238 18.98 128.911 19.3333 128.671 19.8C128.445 20.2667 128.331 20.86 128.331 21.58V27H125.831V16.32H128.211V19.16L127.791 18.32C128.151 17.6267 128.671 17.1 129.351 16.74C130.045 16.38 130.831 16.2 131.711 16.2C132.711 16.2 133.578 16.4467 134.311 16.94C135.058 17.4333 135.551 18.18 135.791 19.18L134.811 18.84C135.158 18.04 135.731 17.4 136.531 16.92C137.331 16.44 138.258 16.2 139.311 16.2Z"
        fill="#292929" />
</svg>
    